<?xml version="1.0" standalone="no"?>
<!DOCTYPE svg PUBLIC "-//W3C//DTD SVG 20010904//EN"
 "http://www.w3.org/TR/2001/REC-SVG-20010904/DTD/svg10.dtd">
<svg version="1.0" xmlns="http://www.w3.org/2000/svg"
 width="452.000000pt" height="452.000000pt" viewBox="0 0 452.000000 452.000000"
 preserveAspectRatio="xMidYMid meet">
<metadata>
Created by potrace 1.16, written by Peter Selinger 2001-2019
</metadata>
<g transform="translate(0.000000,452.000000) scale(0.100000,-0.100000)"
fill="#000000" stroke="none">
<path d="M1990 4235 c-887 -122 -1578 -813 -1705 -1707 -30 -213 -16 -510 36
-731 168 -718 743 -1297 1464 -1473 297 -72 653 -72 950 0 718 175 1286 743
1461 1461 72 297 72 653 0 950 -66 270 -195 536 -370 760 -66 85 -228 248
-316 318 -287 230 -626 374 -988 422 -136 18 -400 18 -532 0z m519 -191 c410
-60 762 -240 1046 -535 150 -156 248 -297 335 -484 121 -257 173 -503 168
-785 l-3 -155 -987 -3 -988 -2 0 983 c0 541 3 987 7 990 13 13 316 7 422 -9z
m-617 -1059 l3 -1035 28 -27 27 -28 1036 -3 1036 -2 -7 -38 c-4 -20 -20 -79
-36 -129 l-30 -93 -995 0 c-694 0 -1001 -3 -1016 -11 -46 -25 -48 -44 -48
-600 l0 -521 -37 7 c-60 10 -265 81 -348 119 -41 19 -111 56 -155 82 l-80 48
0 409 0 409 -29 29 -29 29 -321 0 -320 0 -30 92 c-16 51 -32 110 -36 131 l-7
37 341 0 c373 0 401 4 421 55 6 17 10 353 10 924 l0 897 78 46 c104 62 150 84
253 124 96 37 244 83 271 83 17 1 18 -59 20 -1034z m-812 -135 l0 -770 -307 2
-308 3 1 195 c1 212 13 305 63 477 85 294 222 529 445 760 54 57 100 103 102
103 2 0 4 -347 4 -770z m0 -1682 l-1 -273 -107 111 c-111 114 -210 245 -275
364 l-39 70 211 0 211 0 0 -272z m2780 267 c0 -2 -22 -42 -49 -88 -254 -430
-670 -733 -1161 -846 -131 -30 -262 -42 -420 -39 l-145 3 -3 488 -2 487 890 0
c489 0 890 -2 890 -5z"/>
</g>
</svg>
